<?xml version="1.0" standalone="no"?>
<!DOCTYPE svg PUBLIC "-//W3C//DTD SVG 20010904//EN"
 "http://www.w3.org/TR/2001/REC-SVG-20010904/DTD/svg10.dtd">
<svg version="1.0" xmlns="http://www.w3.org/2000/svg"
 width="479.000000pt" height="479.000000pt" viewBox="0 0 479.000000 479.000000"
 preserveAspectRatio="xMidYMid meet">

<g transform="translate(0.000000,479.000000) scale(0.100000,-0.100000)"
fill="#000000" stroke="none">
<path d="M1762 4112 l-632 -346 2 -1380 3 -1380 230 -127 230 -126 5 243 5
243 142 -77 143 -77 0 -247 0 -246 208 -112 c114 -62 228 -124 253 -138 l46
-25 266 144 266 144 1 246 0 247 140 76 c77 42 142 76 145 76 3 0 5 -108 5
-241 0 -138 4 -239 9 -237 5 2 104 55 220 118 l211 115 -3 1383 -2 1384 -540
294 c-297 163 -580 317 -630 343 l-90 49 -633 -346z m1150 -59 c280 -152 508
-279 508 -283 0 -3 -17 -16 -39 -28 l-38 -22 -464 251 c-255 139 -469 254
-476 256 -6 2 -221 -111 -477 -251 l-465 -256 -46 22 c-25 12 -45 24 -45 27 1
7 1011 560 1025 560 5 1 238 -124 517 -276z m-1373 -930 l141 -77 0 -159 0
-159 -102 56 c-57 30 -122 65 -145 78 l-43 23 0 158 c0 86 2 157 4 157 3 0 68
-35 145 -77z m1901 -81 l0 -157 -136 -75 c-75 -41 -140 -76 -145 -78 -5 -2 -9
67 -9 155 l0 158 138 76 c75 42 140 77 145 78 4 1 7 -70 7 -157z m-1282 -419
l2 -161 -142 77 -143 78 -3 160 -2 161 142 -77 143 -78 3 -160z m812 159 l0
-159 -107 -58 c-60 -32 -127 -69 -151 -83 l-43 -24 3 162 3 162 145 79 c80 43
146 79 148 79 1 0 2 -71 2 -158z m-1418 -323 l128 -70 0 -160 0 -160 -72 40
c-40 22 -104 57 -143 78 l-70 38 -3 159 c-2 146 -1 158 15 152 9 -4 74 -38
145 -77z m1888 -76 l0 -158 -48 -25 c-26 -14 -91 -49 -144 -78 l-98 -53 0 159
0 160 138 75 c75 42 140 76 145 76 4 1 7 -70 7 -156z m-1332 -231 l52 -26 0
-158 c0 -87 -2 -158 -5 -158 -3 0 -68 34 -145 76 l-140 76 0 159 0 160 93 -51
c50 -28 116 -63 145 -78z m862 -29 l0 -158 -144 -77 c-79 -43 -146 -78 -150
-78 -4 0 -5 71 -4 157 l3 158 140 77 c77 42 143 77 148 77 4 1 7 -70 7 -156z
m-1375 -346 l80 -44 3 -161 2 -160 -142 78 -143 79 -3 161 -3 161 63 -35 c35
-19 99 -55 143 -79z m1828 -215 c-10 -7 -61 -36 -113 -64 -52 -28 -110 -59
-128 -70 l-33 -20 3 162 3 162 140 77 140 77 3 -156 c2 -139 1 -156 -15 -168z
m-453 -91 l0 -159 -62 -35 c-35 -19 -102 -55 -150 -81 l-88 -48 0 160 0 160
148 80 c81 44 148 81 150 81 1 1 2 -71 2 -158z m-950 73 l140 -76 0 -159 0
-160 -92 51 c-51 28 -117 63 -145 78 l-53 26 0 158 c0 87 2 158 5 158 3 0 68
-34 145 -76z"/>
</g>
</svg>
